<svg height='100px' width='100px'  fill="#FFFFFF" xmlns:x="http://ns.adobe.com/Extensibility/1.0/" xmlns:i="http://ns.adobe.com/AdobeIllustrator/10.0/" xmlns:graph="http://ns.adobe.com/Graphs/1.0/" xmlns="http://www.w3.org/2000/svg" xmlns:xlink="http://www.w3.org/1999/xlink" version="1.1" x="0px" y="0px" viewBox="0 0 100 100" style="enable-background:new 0 0 100 100;" xml:space="preserve"><g><g i:extraneous="self"><path d="M97.5,90.9l-8.4-15.4L85.9,81L74,74.1V49.7L52.8,37.4V23.6h6.3L50,8.7l-9.1,15h6.3v13.8L26,49.7v24.5L14.1,81l-3.2-5.5    L2.5,90.9L20,91.3l-3.2-5.5L28.8,79L50,91.2L71.2,79l11.9,6.9L80,91.3L97.5,90.9z M31.6,56.1l15.6,9v18l-15.6-9V56.1z M50,60.3    l-15.6-9l15.6-9l15.6,9L50,60.3z M52.8,83.1v-18l15.6-9v18L52.8,83.1z"></path></g></g></svg>